<svg width="220" height="220" viewBox="0 0 220 220" fill="none" xmlns="http://www.w3.org/2000/svg">
<path d="M200.664 26.2109H19.3359C8.68742 26.2109 0 34.8889 0 45.5469V174.453C0 185.075 8.64875 193.789 19.3359 193.789H200.664C211.286 193.789 220 185.14 220 174.453V45.5469C220 34.925 211.351 26.2109 200.664 26.2109ZM197.994 39.1016L110.41 126.686L22.0683 39.1016H197.994ZM12.8906 171.784V48.1546L74.9714 109.703L12.8906 171.784ZM22.0056 180.898L84.1255 118.779L105.892 140.358C108.412 142.856 112.478 142.848 114.987 140.339L136.211 119.115L197.994 180.898H22.0056ZM207.109 171.783L145.326 110L207.109 48.2161V171.783Z" fill="white"/>
</svg>
