<svg width="437" height="153" viewBox="0 0 437 153" fill="none" xmlns="http://www.w3.org/2000/svg">
<g clip-path="url(#clip0)">
<path d="M51.464 0H75.336V110.496C63.09 112.821 54.099 113.751 44.334 113.751C15.191 113.75 0 100.576 0 75.308C0 50.971 16.122 35.161 41.078 35.161C44.953 35.161 47.898 35.47 51.464 36.4V0ZM51.464 55.62C48.674 54.691 46.349 54.381 43.404 54.381C31.313 54.381 24.337 61.822 24.337 74.842C24.337 87.554 31.003 94.529 43.249 94.529C45.883 94.529 48.054 94.374 51.464 93.91V55.62Z" fill="white"/>
<path d="M113.312 36.865V92.203C113.312 111.27 111.917 120.415 107.732 128.321C103.856 135.918 98.74 140.722 88.2 145.993L66.033 135.452C76.574 130.492 81.689 126.153 84.944 119.485C88.355 112.665 89.441 104.759 89.441 83.988V36.865H113.312ZM89.441 0.126953H113.312V24.619H89.441V0.126953Z" fill="white"/>
<path d="M127.731 42.2899C138.273 37.3309 148.348 35.1609 159.354 35.1609C171.6 35.1609 179.66 38.4149 183.226 44.7709C185.24 48.3359 185.86 52.9859 185.86 62.9079V111.425C175.163 112.975 161.678 114.061 151.758 114.061C131.762 114.061 122.77 107.083 122.77 91.5829C122.77 74.8409 134.706 67.0909 164.004 64.6099V59.3399C164.004 54.9999 161.834 53.4509 155.788 53.4509C146.953 53.4509 137.032 55.9309 127.73 60.7369V42.2899H127.731ZM165.089 80.2679C149.277 81.8179 144.162 84.2989 144.162 90.4989C144.162 95.1489 147.108 97.3189 153.618 97.3189C157.184 97.3189 160.438 97.0099 165.089 96.2349V80.2679Z" fill="white"/>
<path d="M197.487 40.5849C211.592 36.8649 223.218 35.1609 234.999 35.1609C247.245 35.1609 256.081 37.9499 261.353 43.3759C266.313 48.4899 267.862 54.0699 267.862 66.0079V112.82H243.99V66.9379C243.99 57.7929 240.89 54.3809 232.365 54.3809C229.11 54.3809 226.165 54.6909 221.358 56.0859V112.82H197.487V40.5849Z" fill="white"/>
<path d="M277.142 125.842C285.514 130.182 293.884 132.196 302.719 132.196C318.374 132.196 325.04 125.842 325.04 110.65C325.04 110.495 325.04 110.34 325.04 110.185C320.39 112.509 315.739 113.44 309.54 113.44C288.613 113.44 275.28 99.6439 275.28 77.7879C275.28 50.6589 294.968 35.3149 329.844 35.3149C340.076 35.3149 349.532 36.3989 361.003 38.7239L352.829 55.9429C346.473 54.7029 352.32 55.7769 347.517 55.3119V57.7929L347.826 67.8669L347.98 80.8889C348.135 84.1429 348.135 87.3989 348.291 90.6539C348.291 93.5989 348.291 94.9949 348.291 97.1649C348.291 117.627 346.586 127.237 341.471 135.142C334.03 146.769 321.164 152.504 302.873 152.504C293.572 152.504 285.513 151.109 277.141 147.853V125.842H277.142ZM324.576 54.5359C324.266 54.5359 323.957 54.5359 323.802 54.5359H322.096C317.447 54.3809 312.022 55.6199 308.3 57.9449C302.566 61.2009 299.619 67.0919 299.619 75.4619C299.619 87.3989 305.511 94.2189 316.051 94.2189C319.306 94.2189 321.942 93.5979 325.041 92.6689V90.9629V84.4539C325.041 81.6639 324.887 78.5619 324.887 75.3079L324.733 64.3029L324.577 56.3969V54.5359H324.576Z" fill="white"/>
<path d="M398.062 34.8501C421.933 34.8501 436.505 49.8871 436.505 74.2231C436.505 99.1811 421.315 114.837 397.132 114.837C373.259 114.837 358.533 99.8001 358.533 75.6191C358.534 50.5051 373.726 34.8501 398.062 34.8501ZM397.595 95.6141C406.742 95.6141 412.168 88.0181 412.168 74.8421C412.168 61.8221 406.897 54.0711 397.753 54.0711C388.296 54.0711 382.869 61.6681 382.869 74.8421C382.87 88.0191 388.296 95.6141 397.595 95.6141Z" fill="white"/>
</g>
<defs>
<clipPath id="clip0">
<rect width="436.505" height="152.503" fill="white"/>
</clipPath>
</defs>
</svg>
