<svg width="207" height="207" viewBox="0 0 207 207" fill="none" xmlns="http://www.w3.org/2000/svg">
<path d="M154.668 94.3532C153.62 92.0374 151.317 90.5625 148.781 90.5625H122.906V6.46875C122.906 2.898 120.008 0 116.438 0H90.5626C86.9918 0 84.0938 2.898 84.0938 6.46875V90.5625H58.2188C55.6831 90.5625 53.3802 92.0503 52.3322 94.3532C51.2714 96.669 51.6854 99.3729 53.3543 101.288L98.6356 153.038C99.8646 154.448 101.637 155.25 103.5 155.25C105.363 155.25 107.135 154.435 108.365 153.038L153.646 101.288C155.328 99.3859 155.716 96.669 154.668 94.3532Z" fill="white"/>
<path d="M174.656 142.312V181.125H32.3438V142.312H6.46875V194.062C6.46875 201.217 12.2648 207 19.4062 207H187.594C194.748 207 200.531 201.217 200.531 194.062V142.312H174.656Z" fill="white"/>
</svg>
