<svg width="220" height="220" viewBox="0 0 220 220" fill="none" xmlns="http://www.w3.org/2000/svg">
<path d="M49.1975 68.75H0V220H49.1975V68.75Z" fill="white"/>
<path d="M183.205 70.5238C182.683 70.3588 182.188 70.18 181.638 70.0287C180.978 69.8775 180.317 69.7538 179.644 69.6438C177.031 69.1213 174.171 68.75 170.816 68.75C142.134 68.75 123.943 89.6088 117.948 97.6663V68.75H68.75V220H117.948V137.5C117.948 137.5 155.128 85.7175 170.816 123.75C170.816 157.699 170.816 220 170.816 220H220V117.934C220 95.0812 204.339 76.0375 183.205 70.5238Z" fill="white"/>
<path d="M24.0625 48.125C37.3519 48.125 48.125 37.3519 48.125 24.0625C48.125 10.7731 37.3519 0 24.0625 0C10.7731 0 0 10.7731 0 24.0625C0 37.3519 10.7731 48.125 24.0625 48.125Z" fill="white"/>
</svg>
