<svg width="220" height="220" viewBox="0 0 220 220" fill="none" xmlns="http://www.w3.org/2000/svg">
<g clip-path="url(#clip0)">
<path d="M220 41.7863C211.819 45.375 203.101 47.7537 194.012 48.9087C203.362 43.3262 210.499 34.5537 213.854 23.98C205.136 29.1775 195.511 32.8488 185.254 34.8975C176.976 26.0838 165.179 20.625 152.309 20.625C127.339 20.625 107.236 40.8925 107.236 65.7388C107.236 69.3138 107.539 72.7512 108.281 76.0237C70.785 74.195 37.6063 56.2238 15.3175 28.8475C11.4262 35.5988 9.14375 43.3263 9.14375 51.645C9.14375 67.265 17.1875 81.1112 29.1775 89.1275C21.9312 88.99 14.8225 86.8863 8.8 83.5725C8.8 83.71 8.8 83.8887 8.8 84.0675C8.8 105.985 24.4337 124.19 44.935 128.384C41.2637 129.387 37.2625 129.869 33.11 129.869C30.2225 129.869 27.3075 129.704 24.5712 129.099C30.415 146.96 46.9975 160.091 66.715 160.517C51.37 172.521 31.8863 179.754 10.7938 179.754C7.095 179.754 3.5475 179.589 0 179.135C19.9787 192.019 43.6563 199.375 69.19 199.375C152.185 199.375 197.56 130.625 197.56 71.0325C197.56 69.0387 197.491 67.1138 197.395 65.2025C206.346 58.85 213.867 50.9163 220 41.7863Z" fill="white"/>
</g>
<defs>
<clipPath id="clip0">
<rect width="220" height="220" fill="white"/>
</clipPath>
</defs>
</svg>
